<?xml version="1.0" encoding="utf-8"?>
<!-- Generator: Adobe Illustrator 18.1.1, SVG Export Plug-In . SVG Version: 6.00 Build 0)  -->
<svg version="1.1" id="Layer_1" xmlns="http://www.w3.org/2000/svg" xmlns:xlink="http://www.w3.org/1999/xlink" x="0px" y="0px"
	 viewBox="0 0 395 204" enable-background="new 0 0 395 204" xml:space="preserve">
<g>
	<g id="XMLID_2_">
		<g>
			<path fill="#FFFFFF" d="M210.5,40c3.1-3.1,4.8,1,4.8,1c0.7,0.9,1.5,2.1,2.5,3.3c6,7.5,12,12.2,14.1,13.8c1.5,1.1,2.7,2,3.5,2.5
				c4.9,2.3,9.9,4.6,14.9,6.9c8.9,4.1,17.8,8.1,26.7,12l-9.4-8.4l1-1.3l-2.3-0.3l-0.8-0.9c0,0-13.9-11.8-17.1-14.3
				c-3.2-2.5-2.3-3.3-2.3-3.3l0.4-1.5l7.3-15.8c2.5-2.2,7.2,1.5,7.2,1.5c1.9,2.1,4.7,5.3,8.1,9.1c7.5,8.4,11.3,12.7,13.6,15.1
				c11.6,12.1,24.1,21.2,35.8,29.8c2.1,1.6,3.9,2.8,5.1,3.7c3.8-2.2,16.1-8.9,32.7-9.1c3.9,0,13.3-0.1,22.8,3.9
				c2.1,0.9,3.7,1.7,4.8,2.4c0,0,0.6,0.9,0.8,2.8s-2.5,1-2.5,1c-2.4-0.9-4.8-1.8-7.2-2.7c-0.8-0.3-1.7-0.6-2.5-0.9
				c-2.9-0.4-5.3-0.6-6.7-0.7c-3.1-0.2-18.7-0.7-32.5,6.4c-1.6,0.8-2.8,1.6-3.4,1.9l3.3,2.4c7.2,4.6,17.6,12.4,24.2,23.1
				c3.3,5.4,4.4,9.5,4.8,10.8c0.3,1.3,1.7,7.2,0.1,15c-0.6,2.9-1.7,8.1-5.9,13.9c-3.6,5.1-7.7,8-13.8,12.4c0,0-14.7,10.5-29.9,14.5
				c0,0-4.4,1.1-13.8,0.9c-3.9-0.1-0.4-1.7-0.4-1.7c1.5-0.1,3.7-0.2,6.3-0.6c7.9-1.2,13.9-3.8,20.1-7.2c12-6.5,18-9.8,22.6-15.4
				c1.4-1.7,12-15.1,5.6-28.2c-0.2-0.4-0.4-0.8-0.5-1l0.6-0.7l0.3-0.8l-1.9-0.4l-0.3-1.1c0,0-0.8-1.5-0.8-1.5
				c-4.5-8.2-16.1-16.9-16.1-16.9c-4.3-3.2-6.1-3.9-16.1-11.2c-0.5-0.4-0.9-0.7-1.2-0.9l-9.9,4.9l1,1.4c0.6,1.7,1.4,4.2,1.7,7.3
				c0.3,3,0.5,5.6-1,8.9c0,0-1.5,3.4-6.4,7.4c0,0-1.7,1.3-4.2,1.9c-2.2,0.5-1.7-0.5-1.7-0.5l1.8-1.7c0.2-0.4,0.7-1.2,1.1-2.3
				c1.9-4.8,0.9-9.4-0.1-14.3c-0.3-1.2-0.5-2.2-0.7-2.7c0,0-0.4-1.2-0.8-1.4c-0.4-0.1-1.2,0.3-1.2,0.3c-7.8,4.2-17.9,8.9-30.2,13.2
				c-10.7,3.7-20.6,6.1-29.1,7.8c0,0-7.1,0.8-9,0.6c-2-0.2-0.7-1-0.7-1c8.1-1.1,17.2-3.2,26.1-7.2c1-0.5,2-0.9,2.9-1.4l2.4,0.5
				l0.9-1.8c5.6-2.1,11.6-4.6,17.8-7.5c6.6-3.1,12.6-6.2,17.8-9.2c0.3-1.7-6.7-11.4-6.7-11.4c0.3,2.8-12.1,11.2-12.1,11.2
				c-13.2,6.6-28.8,13.4-47,19.5c-6.6,2.2-13,4.1-19.2,5.8l-2-0.3c0.1-0.3,0.2-0.5,0.2-0.7l17.8-7.3v-0.9l-3.6-21.4l-7.4-33.3
				l-0.2-2.1l1.5-1.2l-3.1-2.1c0,0-3.3-3.3-5.6-4.3c-2.3-1-3.3-8.8-3.3-8.8L210.5,40z M304,102.6l4.9-2.6l-5.6-3.2L304,102.6z
				 M274.1,99.5c0.9-1.8,0.6-3.4,0.5-4.2c-0.7-4.7-5.5-7.8-7.4-9.1c-0.9-0.6-1.7-1-2.2-1.3v-1.8l-2,0.4c-3.7-3-33.9-13.1-33.9-13.1
				l6.2,42l-3,8.9c5.6-1.9,10.3-3.7,13.8-5.1c2.5-1,10.1-4.1,17.6-8.3c0,0,2.7-1.5,6-4C273,101.5,273.7,100.4,274.1,99.5z"/>
			<path fill="#FFFFFF" d="M210.7,64.2c0.8,2.6,1.9,6.4,2.6,11.2c0.7,4.5,0.5,5.2,1.1,11.8c0.5,5,1.1,9.8,1.7,13.4s0.9,5.9,0.9,5.9
				s0.8,9.6,1.5,13.6c0.7,4,0,3.4,0,3.4l-1.5,1c-1,0.9-1.8-1.4-1.8-1.4l-3-9.1l-4.4-11.7l0.9-2.3l-1.3-0.7l-4.1-13.6h-1.6
				c-1.5-0.4-1.5-2.5-1.5-2.5c-0.3-3.9-2.6-7.8-2.6-7.8l-3.5-7.5l-1.2-5.7c0.1-2.1,9.4-3.7,9.4-3.7
				C207.8,57.1,210.7,64.2,210.7,64.2z"/>
			<path fill="#FFFFFF" d="M199,38.8l-0.1,1.7c0,0,0.1,1.1-1.1,2.2c-1.2,1.1-6.6,5.1-6.6,5.1s-1.7,0.9-1.9-0.5
				c-0.2-1.4-1.2-5.6-1.2-5.6l-2.9-12.4l-1.5-6.5c0,0-1.1-1.9,2.1-4c0,0,4.3-2.8,7.2-3.1c2.9-0.3,4.7,2,4.7,2s1.8,1.8,2.2,8.8
				L199,38.8z"/>
			<path fill="#FFFFFF" d="M137.3,107.8l1.1,0.8l-8.7-8.9c0,0-24.1-18.8-34.7-23.5l-8.6-4C92.4,76.7,99,83,103.5,91.3
				c0.8,1.5,1.5,2.9,2.1,4.3C105.6,95.6,129.6,102.7,137.3,107.8z M26.7,33.1c0.9-2.9,2.7-4.8,5.2-7.4c1.4-1.5,3.5-3.5,6.4-5.6
				c3.4-3,6.2,1.3,6.2,1.3c1.3,1.9,3.2,4.6,5.6,7.8c5.1,6.8,7.6,10.2,11,13.6c5.9,6,12,9.8,17.2,13c3.1,1.9,8.2,4.5,18.5,9.7
				c5.3,2.7,11.5,5.8,20.3,10.4c4.1,2.2,8.3,4.4,13,7.9c2.8,2.1,4.9,3.9,6.3,5.2c-2-4.7-4.9-7.6-7.3-9.3c-7.1-5-10.6-7.5-10.9-7.6
				c-0.5-0.2-2.1-1-2-1.8c0.1-0.5,0.8-0.8,0.8-0.8s5.1-3.1,6.7-4c1.7-0.9,12.4,0.7,12.4,0.7l2.7,1.5c2.7,1.6,4.8,3,6.2,4
				c7.7,5.2,13.2,9.9,17.9,14c1.6,1.4,2.9,2.5,3.7,3.3c0.3-4.7,0.2-8.6,0-11.7c-0.6-9-2.2-13.4-3.1-15.4c-0.4-1-0.9-1.9-1.2-2.5
				l1-1.1l-1.8-0.7l-0.3-1.6l-2.9-8.6c0,0-2.9-8.9-3.4-11.4c-0.6-2.5,8-6.3,8-6.3s5.8-2.3,10.6-3.7c4.8-1.4,5.4,1.3,5.4,1.3l1.2,5.7
				l2.6,12.4c0,0,5.1,18.1,5.4,18.8c0.3,0.7-1,0.8-1,0.8l0.3,3l1,1.3l12.5,24c2.8,5.4,4.5,10.1,5.6,13.5c1.9,5.9,3.3,10.2,3,15.9
				c-0.1,1.2-0.2,4.3-1.4,8.2l-1.4,0.6l1.1,0.2c-0.1,0.3-0.2,0.6-0.3,0.9c-0.9,2.6-4.1,11.6-13.6,19.4c-1.9,1.5-1.5,1-5.5,4
				c0,0-6.4,4.8-10.9,6.1c-2.6,0.7-1.2-0.4-1.2-0.4c4.6-3.4,9-7.2,13-11.5c0.2-0.3,0.5-0.5,0.7-0.8c3.6-5.5,6.7-12.2,7.5-20
				c0.1-1,0.2-1.9,0.2-2.8l1-0.7l-0.4-0.6l-0.8-0.8V121c-0.9-6.5-2.8-11.6-4.3-15c-2.9-6.4-6.7-12-13.8-22.3c-1.1-1.6-2-2.9-2.6-3.7
				l-0.3,1.1l-0.3,4.8c0,0-0.8,16-0.6,17.1c0.2,1.1-0.8,1.5-0.8,1.5l-2,1.2c0,0-4.1,2.2-6.4,3.4c-2.3,1.1-3.1-0.4-3.1-0.4l-1.4-2.9
				l-2.5-4.8c0,0-5.9-9.1-7.4-9.9c-1.5-0.8-2.6-0.9-2.6-0.9c0.6,0.5,2.3,7.1,2.3,7.1l1.1,4.2c0,0,0.5,1.6,0.4,1.8
				c-0.1,0.1-0.5,0.2-0.5,0.2l-0.6,0.3l0.2,0.5c1.8,2.6,4.1,6.2,6.9,11c4.3,7.5,6.4,11.3,7.4,16.2c1.5,7.1,0,12.8-0.4,14.2
				c-3.3,11.6-13.2,19.2-17.6,22.5c-0.8,0.6-1.4,1-1.8,1.3c-1.5,0.8-2.2,1.2-2.2,1.2c0,0-13.9,7.7-14.5,7.6c-0.6,0,0-0.6,0-0.6
				c7.5-4.7,12.3-9,15.2-12c2.4-2.5,3.9-4.4,5.4-6.3c3.5-4.5,4.2-6.4,4.6-7.7c0.5-1.6,0.6-3,0.6-3.9c0.6-1.1,1.5-1.8,1.5-1.8
				l1.1-1.1l-0.8-1.2c-0.7-11.3-5.6-18.9-10.3-23.9c-0.4-0.4-0.7-0.7-1.1-1.1c-8.9-5.2-20.3-10.3-34.4-13.7
				c-1.9-0.4-3.7-0.8-5.6-1.2c0.5,1.4,1.9,5.6-1,10c-1,1.6-2.4,2.7-3.5,3.5l-2.6,2.2c0,0-13.9,10.6-14.6,11.4
				c-0.7,0.9-1.9,0.5-1.9,0.5s-1-0.1-1.4-0.5c-0.4-0.4,0.3-1.3,0.3-1.3l13.8-16.8l0.3-2c-0.4-3.2-1.3-6.6-3-10
				c-0.1-0.2-0.2-0.5-0.3-0.7h-0.5c-6.7-1.5-14.6-2.7-23.4-3c-1.8-0.1-3.6-0.1-5.3-0.1h-3.8L56.5,98l-41.2-2.1
				c-0.3-0.2-0.6-0.4-0.9-0.8c-0.3-0.4-0.6-0.9-0.7-1.8c-0.1-1.3,0.2-2.3,0.4-2.8c0.4-1,2.8-3.8,3-4.7l0-1.1c0-1.1,7.5-0.8,7.5-0.8
				c6.7,0.3,12.3,0.7,16.4,1c12.8,0.9,19.2,1.4,25.8,2.5c1.2,0.2,5.3,1,11.3,1.9c2.4,0.4,4.4,0.7,5.7,0.9l4.8,0.7
				c-7.1-7.4-15.9-14.8-26.6-21.7c-1-0.6-1.9-1.2-2.9-1.8l-0.4-2l-3-0.4c-5.2-3.8-9.4-7.2-12.5-10c-3.6-3.1-8.2-7.2-13.1-13
				c-1.7-2-2.9-3.6-3.8-4.8C26.2,36.4,26.2,34.9,26.7,33.1z"/>
		</g>
		<g>
		</g>
	</g>
</g>
</svg>
