<?xml version="1.0" encoding="utf-8"?>
<!-- Generator: Adobe Illustrator 18.1.1, SVG Export Plug-In . SVG Version: 6.00 Build 0)  -->
<svg version="1.1" id="Layer_1" xmlns="http://www.w3.org/2000/svg" xmlns:xlink="http://www.w3.org/1999/xlink" x="0px" y="0px"
	 viewBox="0 0 960 560" enable-background="new 0 0 960 560" xml:space="preserve">
<g>
	
		<image overflow="visible" opacity="0.75" enable-background="new    " width="548" height="548" xlink:href="67EC560.png"  transform="matrix(1 0 0 1 213 13)">
	</image>
	<g>
		<g>
			<g>
				<g>
					<path fill="#FFFFFF" d="M707.9,353.7c3.1-1.8,6-3.7,8.9-5.8c1.5-1.1,3-2.2,4.3-3.2c1.5-1.1,3-2.3,4.2-3.5c2-1.8,4.1-4.7,6-8.7
						c1.1-2.2,1.8-4.6,2.6-7.2c0.4-1.4,0.7-2.7,1.1-4.1c0.1-0.7,0.3-1.4,0.4-2s0.1-1.5,0.3-2.2c0.7-5.1,1.1-10.6,0.4-16.1
						c-1.5,1.8-3,3.4-4.5,5c-1.6,1.6-3.1,3.1-4.7,4.7c0,0-3,2.8-6.1,5.5c-1.5,1.4-3.1,2.7-4.3,3.7c-1.2,0.9-2,1.6-2,1.6
						c-2.4,2.2-4.9,4.2-7.3,6.2c-2.4,2-4.7,4.1-6.9,6.1c-2.4,2.4-5.3,5.4-7.6,8.7c-2,3-4.2,6-6,9.1c-1.6,3.1-3.4,6.4-4.6,9.6
						c-1.2,3.2-2.3,6.4-3.1,9.5c1.1-0.8,2-1.5,2.8-2C690.2,363.7,698.9,359.3,707.9,353.7z M686,394.4c2.6-0.9,5-1.9,7.4-2.8
						s5-2,7.6-3.1c1.8-0.8,3.4-1.6,5-2.4c1.6-0.9,3.2-1.8,5-2.8c1.2-0.7,2.4-1.6,3.7-3c1.4-1.2,2.4-2.8,3.7-4.5
						c1.4-1.9,2.7-4.2,3.9-6.6s2.2-5.1,3.1-7.8c1.8-4.9,2.7-10.3,3.4-15.7c-5.5,4.5-10.8,8.3-16.5,11.6c-4.5,2.7-8.5,5.1-12.9,7.4
						c-4.2,2.3-8,4.7-11.8,7.2c-1.5,0.9-3,2.2-4.5,3.4c-0.8,0.5-1.5,1.2-2.2,1.9c-0.8,0.7-1.5,1.4-2.3,2c-5.3,5-9.9,10.6-13.7,16.5
						c-0.9,1.5-1.8,2.8-2.6,4.3c-0.4,0.7-0.8,1.5-1.1,2.3c-0.4,0.8-0.7,1.5-1.1,2.2c1.2-0.5,2.3-1.1,3.1-1.5c3.5-1.5,7.2-3,11-4.2
						C678.2,397.1,682,395.8,686,394.4z M683.8,438.9c3.2-4.1,6-8.8,8.4-13.7l-1.2,0.4c-3.1,1.1-6.2,2-9.2,2.8
						c-1.5,0.4-3,0.8-4.6,1.1c-1.5,0.3-3,0.7-4.5,0.9c-1.9,0.4-3.7,0.7-5.5,1.1c-0.9,0.1-1.8,0.4-2.7,0.5s-1.8,0.3-2.7,0.4
						l15.7,13.1c0.5-0.5,1.1-1.1,1.6-1.5c0.5-0.5,1.1-1.1,1.5-1.8C681.8,441.4,682.8,440.2,683.8,438.9z M700.3,293.4
						c1.4-1.6,2.6-3.2,3.8-4.9c1.4-1.6,2.6-3.2,4.1-4.9l1.9-2.3l1.1-1.4h-12.7c-0.3,2.2-0.5,4.2-0.5,6.2c0,1.8,0,3.4,0.1,5
						c0,1.6,0.1,3.4,0.3,5l0.3-0.4C699.3,294.9,699.8,294.1,700.3,293.4z M694.8,331.1c5.7-5.3,11.6-10.3,18.3-15.7
						c3.8-3.5,7.8-7,11.9-11c2.6-2.7,5.1-5.4,7.6-8.4c0.8-1.1,1.8-2.4,2.4-4.1c0.7-1.6,1.4-3.5,1.9-5.5c0.4-1.6,0.7-3.4,0.9-5.1
						l0.3-1.5h-20.4l-1.1,1.4c-1.9,2.3-3.8,4.5-5.4,6.6c-1.5,1.9-2.8,3.8-4.3,5.7c-2.2,2.8-4.1,6.4-5.8,9.9c-1.5,3-2.8,6.1-3.8,9.2
						c-1.4,3.7-2.4,7.3-3.1,11.1c-0.8,3.2-1.2,6.6-1.4,9.9l0.4-0.4C693.4,332.5,694.1,331.8,694.8,331.1z M690.3,420.5l0.8-0.4
						c2.3-1.1,5-3.1,7.7-5.7c1.8-1.6,3.2-3.7,4.9-5.8c0.8-1.1,1.6-2.3,2.3-3.4c0.8-1.2,1.5-2.4,2.2-3.7c2.3-4.6,4.5-9.6,6-15
						c-2,1.2-3.9,2.3-6,3.2c-2,0.9-4.1,1.9-6.1,2.8c0,0-3.8,1.6-7.6,3.2c-3.8,1.5-7.7,2.8-7.7,2.8c-1.5,0.5-3.1,1.1-4.6,1.8
						c-1.5,0.5-3,1.1-4.5,1.6c-3,1.1-5.8,2.2-8.5,3.5c-1.6,0.8-3.2,1.6-5,2.4c-1.8,0.9-3.4,1.9-5,3.1c-1.4,0.9-2.7,1.9-4.1,2.8
						c-1.4,0.9-2.6,2-3.9,3.1c-1.4,1.1-2.6,2.3-3.9,3.5l9.7,8.3c2-0.3,4.1-0.7,6.1-1.1s4.2-0.8,6.4-1.2c1.8-0.4,3.4-0.7,5.1-1.1
						c1.8-0.4,3.4-0.8,5.1-1.4C683.3,423,686.8,421.9,690.3,420.5z"/>
					<path fill="#FFFFFF" d="M607.1,482.9c3.4,0.5,6.9,0.9,10.6,1.4c3.5,0.3,7.2,0.4,10.8,0.4c1.4,0,3-0.3,4.7-0.7
						c1.6-0.5,3.5-1.2,5.4-2c2.2-1.1,4.5-2.2,6.6-3.8c2.2-1.5,4.5-3.2,6.6-5.1c2-1.6,3.8-3.7,5.5-5.7s3.5-4.1,5.1-6.4
						c-4.5,0.8-9.1,1.2-13.4,1.5c0,0-1.1,0-2.6,0.1s-3.7,0.1-5.7,0.1c-4.2,0.1-8.1,0.1-8.1,0.1c-3.2,0-6.6-0.1-9.7,0
						c-3.1,0-6.1,0.3-9.2,0.3c-1.8,0.1-3.7,0.3-5.5,0.7c-1.9,0.3-3.8,0.8-5.8,1.2c-3.5,0.8-6.9,1.9-10.3,3.1
						c-3.4,1.2-6.6,2.7-9.7,4.3c-3,1.5-5.8,3.4-8.5,5.3c1.4,0.1,2.4,0.1,3.5,0.3C587.1,479.1,596.6,481.4,607.1,482.9z M564.3,500.1
						c4.9,1.6,10.1,3.5,15.3,5c3.7,0.9,7.3,1.9,11.1,2.4c2.7,0.4,6.4,0,10.4-0.9c2.3-0.5,4.7-1.5,7.2-2.6c1.2-0.5,2.4-1.1,3.8-1.8
						c1.2-0.7,2.6-1.4,3.8-2.2c4.3-2.8,8.8-6,12.6-10c-6.9,0.1-13.7-0.8-20-1.6c-5-0.7-10-1.8-14.6-2.4c-2.3-0.4-4.6-0.8-6.9-1.2
						c-2.3-0.4-4.5-0.7-6.6-0.9c-1.8-0.1-3.7-0.3-5.5-0.4c-1.9,0-3.9,0-6,0.1c-7.2,0.4-14.3,1.8-21.1,3.9c-0.8,0.3-1.6,0.5-2.4,0.8
						s-1.6,0.5-2.3,0.8c-1.5,0.5-3.1,1.2-4.6,2c1.2,0.3,2.4,0.5,3.4,0.8c1.9,0.5,3.7,1.2,5.5,1.9c1.9,0.5,3.7,1.2,5.5,1.9
						C556.6,497.2,560.3,498.7,564.3,500.1z M534,532.8c5-1.2,10.3-2.7,15.3-5.1l-1.2-0.4c-1.5-0.5-3-1.1-4.5-1.8s-3-1.4-4.3-2
						c-2.8-1.4-5.7-2.7-8.3-4.2c-3.4-1.8-6.6-3.7-9.7-5.4l3.5,20.2c1.5-0.1,3-0.3,4.6-0.4C530.9,533.4,532.5,533.2,534,532.8z
						 M640.2,431.9c2-0.5,4.1-0.8,6.1-1.2c2-0.4,4.1-0.8,6.2-1.2l3-0.5l1.8-0.3l-9.7-8.3c-1.5,1.5-3,3-4.3,4.5
						c-0.5,0.7-1.1,1.4-1.6,1.9c-0.5,0.7-1.1,1.2-1.6,1.9c-1.1,1.4-2,2.7-2.8,4.1l0.5-0.1C638.4,432.3,639.3,432,640.2,431.9z
						 M611.6,457.2c3.8-0.3,7.7-0.4,11.8-0.4c2,0,4.1,0,6.1,0s4.1,0,6.2,0c5.3,0,10.6-0.3,16.1-0.7c3.8-0.3,7.4-0.8,11.2-1.6
						c2.7-0.5,6.1-2,9.5-4.6c1.4-0.9,2.7-2.2,4.1-3.4l1.2-0.9l-15.7-13.1l-1.8,0.3c-2.8,0.5-5.7,0.9-8.4,1.6c-2.3,0.5-4.7,0.9-7,1.5
						c-3.5,0.8-7.2,2.3-10.8,3.8c-3.1,1.4-6,3-8.8,4.6c-3.4,1.9-6.5,4.2-9.6,6.5c-2.7,2-5,4.5-7.4,6.8h0.5
						C609.7,457.3,610.8,457.3,611.6,457.2z M550.7,522.8l0.9,0.3c1.2,0.4,2.7,0.5,4.3,0.7c1.6,0,3.4,0,5.3-0.1
						c2.3-0.3,4.9-0.7,7.6-1.2c2.6-0.7,5.3-1.6,8-2.7c1.2-0.5,2.4-0.9,3.7-1.5c1.2-0.5,2.4-1.2,3.5-1.9c2.3-1.4,4.7-2.7,7-4.2
						c-4.6-0.8-8.9-1.9-13.1-3.1c0,0-0.9-0.3-2.4-0.7c-1.5-0.5-3.5-1.1-5.4-1.8c-3.9-1.4-7.7-2.7-7.7-2.7c-3.1-1.2-6.2-2.3-9.1-3.4
						c-1.5-0.5-3-0.9-4.3-1.5c-1.5-0.4-3-0.9-4.3-1.4c-1.8-0.5-3.5-0.9-5.4-1.2c-0.9-0.1-1.9-0.3-2.8-0.4c-0.9-0.1-2-0.3-3-0.4
						c-3.2-0.4-6.6-0.5-9.9-0.5c-1.8,0-3.5,0-5.3,0.1l2.2,12.6c3.5,2,7.2,4.3,11,6.2c3,1.6,6.2,3.2,9.5,4.9
						C544,520.4,547.2,521.6,550.7,522.8z"/>
					<path fill="#FFFFFF" d="M447,517.3c2.3,2.6,4.7,5.1,7.2,7.8c2.6,2.6,5.3,4.9,8.1,7.3c1.1,0.8,2.4,1.8,4.1,2.4
						c1.6,0.8,3.5,1.4,5.5,1.9c2.3,0.5,4.9,1.1,7.4,1.4c2.7,0.3,5.5,0.3,8.4,0.3c5.1,0,10.6-0.9,16-2.3c-3.9-2.4-7.7-4.9-11.2-7.4
						c0,0-3.4-2.6-6.5-5.1c-1.6-1.2-3.1-2.6-4.3-3.5c-0.5-0.5-1.1-0.9-1.4-1.2s-0.5-0.4-0.5-0.4c-2.6-2.2-5-4.3-7.4-6.2
						c-1.2-0.9-2.4-1.9-3.7-2.8s-2.4-1.9-3.7-2.8c-1.5-1.1-3-2.2-4.6-3.1s-3.4-1.9-5.1-2.8c-3.2-1.8-6.6-3-10-4.2
						c-3.4-1.4-6.8-2.2-10.3-2.8c-3.2-0.8-6.6-1.2-9.9-1.4c0.9,0.9,1.9,1.6,2.6,2.4c3.2,3.4,6.4,7.3,9.6,11
						C440.2,509.1,443.5,513.3,447,517.3z M403,502.6c1.4,2.3,2.7,4.6,4.1,6.9s3,4.5,4.5,6.8c1.1,1.5,2.2,3.1,3.4,4.6
						c1.1,1.5,2.3,3,3.7,4.5c1.8,2,4.7,4.1,8.7,6c2.2,1.1,4.6,1.8,7.2,2.6c1.4,0.4,2.7,0.7,4.1,1.1c1.4,0.3,2.8,0.5,4.2,0.8
						c5.1,0.7,10.6,1.1,16.1,0.4c-1.4-1.1-2.6-2.3-3.9-3.4c-1.2-1.1-2.4-2.4-3.7-3.5c-2.4-2.4-4.6-4.9-6.8-7.2
						c-3.4-3.8-6.5-7.7-9.6-11.4c-1.5-1.8-3-3.5-4.6-5.3c-1.5-1.8-3-3.4-4.6-5c-0.7-0.7-1.2-1.2-1.9-1.9s-1.4-1.4-2-1.9
						c-1.5-1.4-3-2.6-4.6-3.8c-3-2-6-4.2-9.1-6c-3.1-1.6-6.4-3.4-9.6-4.6s-6.4-2.3-9.5-3.1c0.8,1.1,1.5,2,2,2.8
						c2,3.4,4.1,6.6,6.1,10l3,5.3C401,499.1,402.1,500.9,403,502.6z M358.9,508.3c4.6,2.3,9.6,4.5,15,5.8l-0.7-1.1
						c-3.2-5.5-5.8-11.5-8.1-17c-0.7-1.8-1.4-3.5-2-5.3c-0.7-1.8-1.2-3.4-1.9-5.1L351,503.3c1.2,0.9,2.4,1.8,3.8,2.6
						c0.7,0.4,1.4,0.8,2,1.2C357.4,507.7,358.1,507.9,358.9,508.3z M505.2,499.3c3.7,1.8,7.3,3.9,11,6.1l2.6,1.5l1.5,0.8l-2.2-12.6
						c-1.1,0.1-2.2,0.1-3.1,0.3l-1.5,0.3l-1.5,0.1c-3.4,0.4-6.6,1.2-9.7,2.2l0.5,0.3C503.4,498.6,504.3,499,505.2,499.3z
						 M466.9,500.3c1.6,1.2,3.1,2.4,4.6,3.5c1.5,1.2,3.1,2.4,4.6,3.8l4.6,3.9c1.6,1.4,3.1,2.6,4.7,3.9c2,1.6,4.2,3.4,6.2,5
						c2.2,1.6,4.3,3.2,6.5,4.9c1.5,1.1,3.1,2.2,4.7,3.1c1.6,1.1,3.2,2,4.9,2.8c2.4,1.4,6,2.2,10.1,2.6c1.6,0.1,3.4,0,5.3,0h1.5
						l-3.5-20.2l-1.5-0.8c-1.2-0.7-2.4-1.4-3.8-2c-1.2-0.7-2.4-1.4-3.7-2.2c-2.2-1.2-4.2-2.3-6.4-3.4c-3.2-1.5-6.9-3.1-10.7-4.1
						c-1.6-0.5-3.2-0.8-4.9-1.2c-1.6-0.4-3.2-0.7-4.9-1.1c-1.9-0.3-3.8-0.5-5.8-0.7c-1.9-0.3-3.8-0.4-5.7-0.4c-1.8,0-3.4,0-5,0.1
						c-1.6,0-3.4,0.1-5,0.3l0.4,0.3C465.4,499.3,466.2,499.8,466.9,500.3z M378.1,511.4l0.5,0.8c1.5,2.2,3.9,4.5,7,6.5
						c2,1.4,4.2,2.7,6.6,3.9c2.4,1.1,5.1,2.2,7.8,3.1c1.2,0.4,2.4,0.8,3.8,1.1s2.6,0.5,3.9,0.8c2.7,0.5,5.4,0.9,8.1,1.2
						c-3-3.7-5.5-7.2-8-10.8c0,0-0.5-0.8-1.5-2.2c-0.8-1.4-1.9-3.1-3-4.9c-2.2-3.5-4.2-7-4.2-7c-1.6-2.8-3.2-5.7-4.9-8.4
						c-1.6-2.7-3.2-5.1-4.9-7.7c-0.9-1.5-2.2-3-3.4-4.5c-1.2-1.5-2.6-2.8-3.9-4.5c-2.3-2.4-4.7-4.6-7.3-6.8
						c-1.4-1.2-2.7-2.3-4.1-3.2l-6.4,11.1c1.4,3.8,2.8,8,4.5,11.9c1.2,3.2,2.7,6.5,4.2,9.7C374.5,505.1,376.3,508.3,378.1,511.4z"/>
					<path fill="#FFFFFF" d="M302.3,440.4c0.1,3.5,0.3,6.9,0.5,10.6c0.1,1.8,0.3,3.7,0.5,5.4c0.3,1.8,0.5,3.5,0.9,5.4
						c0.3,1.4,0.8,2.8,1.5,4.5c0.8,1.6,1.6,3.4,3,5c2.8,3.8,6.5,8,11.1,11.5c2,1.6,4.2,3.1,6.5,4.6c2.3,1.4,4.7,2.7,7.2,3.9
						c-1.5-4.3-2.8-8.5-3.8-12.9c0,0-0.9-4.1-1.8-8.1c-0.4-2-0.8-3.9-1.1-5.5c-0.3-1.5-0.4-2.6-0.4-2.6c-0.5-3.2-1.1-6.5-1.6-9.5
						c-0.5-3.1-1.1-6.1-1.9-9.1c-0.4-1.8-0.9-3.5-1.6-5.3c-0.5-1.9-1.4-3.8-2-5.5c-0.7-1.6-1.5-3.2-2.3-4.9
						c-0.8-1.6-1.6-3.2-2.6-4.7c-0.9-1.5-1.9-3-3-4.5c-0.9-1.5-2-3-3.1-4.3c-1.1-1.4-2.2-2.6-3.2-3.8c-1.1-1.2-2.2-2.4-3.4-3.7
						c0.1,1.4,0.3,2.6,0.3,3.5c0,2.4,0.3,4.7,0.3,7.2c0,2.4,0,4.9,0,7.4C302.1,430,302.1,435.1,302.3,440.4z M277.9,401.2
						c-0.8,5.1-1.6,10.4-2.2,16c-0.3,3.7-0.4,7.4-0.4,11.2c0,1.4,0.3,3,0.7,4.7c0.5,1.6,1.2,3.5,2,5.4c1.1,2.2,2.2,4.5,3.8,6.6
						c1.5,2.2,3.2,4.5,5.1,6.6c1.6,2,3.7,3.8,5.5,5.5c2,1.8,4.1,3.5,6.4,5.1c-0.5-3.4-0.9-6.9-1.2-10.3c-0.3-3.4-0.5-6.6-0.5-9.9
						c-0.3-10.3,0.1-19.7-0.4-28.5c-0.1-1.8-0.3-3.7-0.7-5.5c-0.3-1.9-0.8-3.8-1.2-5.8c-0.8-3.5-1.9-6.9-3.1-10.3
						c-0.5-1.8-1.2-3.4-2-5c-0.7-1.6-1.6-3.1-2.3-4.7c-1.5-3-3.4-5.8-5.3-8.5c-0.1,1.4-0.1,2.4-0.3,3.5c-0.4,3.8-1.1,7.7-1.9,11.6
						C279.4,393.1,278.7,397,277.9,401.2z M240.4,377.1c0.5,1.2,0.9,2.4,1.5,3.7c0.5,1.2,1.2,2.4,1.9,3.5c1.4,2.3,2.7,4.7,4.2,7
						l0.3-1.2c0.7-3.2,1.4-6.4,2.2-9.3c0.4-1.5,0.8-3,1.2-4.5c0.5-1.5,0.9-3,1.5-4.5c1.2-3.5,2.4-7,3.7-10.4l-19.2,7
						C238.3,371.2,239.2,374.1,240.4,377.1z M358.3,464.1c1.6,3.8,3.1,7.7,4.6,11.8l1.1,2.7l0.5,1.6l6.4-11.1
						c-1.6-1.2-3.5-2.3-5.3-3.5c-2.8-1.9-5.8-3.4-8.9-4.6l0.3,0.5C357.4,462.5,357.9,463.4,358.3,464.1z M328.4,440.4
						c0.4,1.9,0.8,3.8,1.2,5.8c0.4,1.9,0.8,3.8,1.1,5.8c0.7,3.9,1.4,8,2.2,12c1.1,5.1,2,10.6,3.5,15.7c0.9,3.5,2,7.3,3.5,10.8
						c1.1,2.6,3.1,5.5,6.1,8.5c1.1,1.2,2.6,2.3,4.1,3.4l1.2,0.9l10.3-17.7l-0.7-1.6c-0.5-1.4-1.1-2.7-1.5-4.1
						c-0.5-1.4-0.9-2.7-1.5-3.9c-0.8-2.3-1.8-4.5-2.7-6.6c-0.4-0.8-0.8-1.6-1.2-2.4c-0.4-0.8-0.8-1.8-1.4-2.6c-0.9-1.8-2-3.4-3.1-5
						c-0.4-0.7-0.9-1.4-1.5-2c-0.5-0.7-0.9-1.4-1.5-2c-0.9-1.4-2-2.6-3.1-3.9c-2.6-2.8-5.1-5.8-8-8.3c-0.7-0.5-1.4-1.1-1.9-1.6
						c-0.7-0.5-1.2-1.1-1.9-1.6c-1.4-1.1-2.7-2-4.1-2.8l0.1,0.5C327.8,438.5,328.1,439.6,328.4,440.4z M253.2,391.9l-0.1,0.9
						c-0.1,2.6,0.1,5.8,1.1,9.5c0.7,2.3,1.6,4.7,2.7,7.2c1.1,2.4,2.4,5,3.9,7.4c1.4,2.2,3,4.3,4.6,6.5s3.5,4.1,5.4,6.1
						c0-4.6,0.1-9.1,0.7-13.4c0,0,0.4-4.2,1.1-8.3c0.3-2,0.7-4.1,0.9-5.5c0.3-1.5,0.4-2.6,0.4-2.6c0.5-3.2,1.1-6.4,1.6-9.5
						s0.9-6.2,1.4-9.1c0.3-3.5,0.4-7.6,0.1-11.5c-0.3-3.2-0.7-6.6-1.2-9.9c-0.3-1.8-0.7-3.4-1.1-5.1l-12,4.3
						c-1.4,3.9-2.8,7.8-4.2,11.9c-1.2,3.4-2,6.6-3,10.1C254.5,384.7,253.6,388.3,253.2,391.9z"/>
					<path fill="#FFFFFF" d="M240.7,288.7c-1.1,1.4-2.2,2.7-3.2,4.2c-1.1,1.4-2,2.8-3.1,4.3c-2,3-4.1,6.1-5.8,9.2
						c-1.4,2.4-2.2,6-2.6,10.1c-0.3,2.4-0.3,4.9,0,7.6s0.5,5.5,1.1,8.4c0.5,2.6,1.2,5.1,2.2,7.7c0.4,1.2,0.8,2.6,1.4,3.8
						c0.5,1.2,1.1,2.6,1.6,3.8c1.5-4.3,3.5-8.4,5.4-12.3c0,0,0.4-0.9,1.2-2.3c0.7-1.4,1.6-3.2,2.6-5c2-3.7,4.1-7,4.1-7
						c3.2-5.7,6.6-11.1,9.2-16.5c1.5-3.2,3.1-6.9,4.2-10.7c0.3-0.8,0.4-1.8,0.7-2.6c0.3-0.8,0.5-1.8,0.7-2.6
						c0.4-1.8,0.8-3.5,1.1-5.3c0.4-3.5,1.1-7,1.1-10.6c0.1-1.8,0-3.4,0-5s-0.1-3.4-0.3-5c-0.7,1.1-1.4,2.2-2,2.8
						C254,273.2,247.3,280.4,240.7,288.7z M247.3,242.9c-3.9,3.4-7.8,7-11.9,10.8c-2.7,2.6-5.1,5.4-7.6,8.4
						c-0.8,1.1-1.8,2.4-2.4,4.1c-0.8,1.6-1.4,3.5-1.9,5.5c-0.5,2.3-1.1,4.9-1.4,7.4c-0.3,2.7-0.3,5.5-0.3,8.4c0,5.1,0.9,10.6,2.3,16
						c1.8-3,3.7-5.8,5.5-8.7c0.5-0.7,0.9-1.4,1.5-2s1.1-1.4,1.5-2c1.1-1.4,2-2.6,3-3.9c1.6-2,3.2-3.9,4.7-5.8s3.2-3.8,4.7-5.5
						c3.1-3.7,5.8-7.2,8.5-10.7c1.1-1.5,2.2-3,3.1-4.6s1.9-3.4,2.8-5.1c0.8-1.6,1.6-3.2,2.3-4.9c0.7-1.6,1.2-3.4,1.9-5
						c1.4-3.4,2.2-6.8,2.8-10.3c0.8-3.2,1.2-6.6,1.4-9.9c-0.9,0.9-1.6,1.9-2.4,2.6c-2.7,2.7-5.8,5.1-8.9,7.7
						C253.7,237.7,250.6,240.2,247.3,242.9z M234.1,200.3c-0.8,2.4-1.5,5-2,7.7s-0.9,5.4-1.2,8.1c0,0,0.3-0.1,0.5-0.4
						c0.3-0.1,0.5-0.4,0.5-0.4c2.6-2,5.1-3.9,7.7-5.8c1.2-0.9,2.6-1.8,3.8-2.7c1.2-0.8,2.6-1.6,3.9-2.4c3.2-1.9,6.4-3.8,9.5-5.7
						l-19.2-7C236.3,194.4,235.2,197.4,234.1,200.3z M268.3,342.8c-1.4,4.1-2.6,7.8-4.1,11.9l-1.1,2.8l-0.5,1.6l12-4.3
						c-0.4-2-0.9-4.1-1.6-6.1c-0.5-1.6-1.2-3.1-1.8-4.7c-0.5-1.5-1.2-3.1-2-4.6l-0.1,0.5C268.9,341,268.6,342,268.3,342.8z
						 M260.7,305.4c-1.6,3.5-3.7,6.9-5.7,10.3c-1.9,3.4-3.9,6.9-6.1,10.6c-2.6,4.6-5,9.3-7.4,14.3c-1.6,3.4-3,6.9-4.2,10.6
						c-0.4,1.4-0.8,2.8-0.9,4.6c-0.1,1.8,0,3.7,0.1,5.8c0.1,1.6,0.5,3.4,0.8,5.1l0.3,1.5l19.2-7l0.5-1.6c1.1-2.7,2-5.4,2.8-8.1
						c0.7-2.3,1.5-4.6,2.2-6.9c0.5-1.8,0.9-3.5,1.2-5.4c0.4-1.9,0.5-3.8,0.8-5.8c0.4-3.2,0.5-6.6,0.5-9.9c0.1-3.9-0.3-7.7-0.8-11.5
						c-0.4-3.4-1.2-6.6-2.2-9.7l-0.3,0.5C261.5,303.7,261.1,304.6,260.7,305.4z M234.4,219.9l-0.7,0.7c-1.8,1.9-3.7,4.6-5.3,8
						c-0.9,2.2-1.8,4.6-2.6,7.2c-0.8,2.6-1.4,5.4-1.8,8.3c-0.3,2.6-0.5,5.1-0.7,7.8c-0.1,1.4,0,2.7,0,4.1c0,1.4,0.1,2.7,0.3,4.1
						c1.5-1.8,3-3.5,4.5-5.1s3.1-3.2,4.7-4.7c0,0,3-2.8,6.1-5.7c1.5-1.4,3.1-2.7,4.2-3.7c1.2-0.9,2-1.6,2-1.6c2.6-2.2,5-4.2,7.3-6.2
						c2.4-2,4.7-4.1,6.9-6.2c1.4-1.2,2.4-2.6,3.8-4.1s2.6-3,3.8-4.6c0.9-1.4,1.9-2.7,2.7-4.1c0.9-1.4,1.8-2.8,2.6-4.2
						c0.8-1.5,1.6-3.1,2.4-4.6l-12-4.3c-3.7,2.2-7.2,4.2-11,6.5c-3,1.8-5.8,3.8-8.8,5.8C240,215.2,236.9,217.4,234.4,219.9z"/>
					<path fill="#FFFFFF" d="M291.2,132.8c-6.9,1.2-13.8,3.1-20.8,5.7c-2.6,0.9-5.5,3.1-8.5,6.1c-1.8,1.6-3.4,3.7-4.9,5.8
						c-1.6,2.2-3.1,4.6-4.5,7.2c-1.2,2.3-2.3,4.7-3.4,7.2c-0.5,1.2-0.9,2.6-1.5,3.8c-0.4,1.4-0.8,2.6-1.2,3.9c3.9-2.3,8-4.2,12-6
						c0,0,0.9-0.4,2.4-1.1c1.5-0.5,3.2-1.4,5.3-2.2c3.9-1.5,7.7-2.8,7.7-2.8c6.1-2.3,12.2-4.2,17.6-6.8c3.2-1.5,6.8-3.2,10-5.5
						c3-2,6-4.1,8.7-6.5c2.7-2.3,5.4-4.7,7.6-7.4c2.3-2.6,4.3-5.1,6.2-7.8c-1.2,0.4-2.4,0.7-3.4,0.9c-2.3,0.5-4.7,0.9-7.2,1.5
						c-2.3,0.5-4.7,0.9-7.2,1.4s-5,0.8-7.4,1.2C296.3,131.9,293.7,132.3,291.2,132.8z M325.7,102.1c-2.6,0-5.3,0-8,0.1
						s-5.4,0.3-8.1,0.4c-1.9,0.1-3.8,0.3-5.7,0.5c-1.9,0.3-3.7,0.5-5.5,0.9c-2.7,0.5-6.1,2-9.5,4.5c-3.8,2.8-8,6.5-11.5,11.1
						c-1.6,2-3.1,4.2-4.6,6.5c-1.4,2.3-2.7,4.7-3.9,7.2c3.2-1.2,6.6-2.2,9.7-3.1c3.2-0.8,6.5-1.5,9.7-2.2c2.6-0.5,4.9-1.1,7.4-1.5
						c2.4-0.4,4.9-0.8,7.2-1.2c2.3-0.4,4.6-0.8,6.9-1.4c2.3-0.4,4.5-0.8,6.6-1.4c1.8-0.4,3.5-0.9,5.3-1.6c1.9-0.5,3.8-1.4,5.5-2
						c1.6-0.7,3.2-1.5,4.9-2.3s3.2-1.6,4.7-2.6c1.5-0.9,3-1.9,4.5-3c1.5-0.9,3-2,4.3-3.1s2.6-2.2,3.8-3.2c1.2-1.1,2.4-2.2,3.7-3.4
						c-1.4,0.1-2.6,0.3-3.5,0.3c-2,0.1-3.9,0.1-5.8,0.3c-1.9,0-3.9,0-6,0C333.8,102,329.9,102.1,325.7,102.1z M342.8,61
						c-2.2,1.4-4.3,3-6.5,4.6s-4.1,3.5-6.1,5.4h1.2c3.2,0,6.4,0.1,9.6,0.4c3.1,0.3,6.2,0.7,9.2,1.1c3.7,0.4,7.4,1.2,11,1.8L351,56.5
						C348.3,57.8,345.5,59.2,342.8,61z M277.5,192.1c-1.8,1.1-3.5,2.2-5.3,3.2c-1.8,1.1-3.5,2.2-5.4,3.2l-2.6,1.5
						c0,0-0.4,0.3-0.8,0.4c-0.4,0.3-0.7,0.4-0.7,0.4l12,4.3c0.9-1.9,1.9-3.8,2.6-5.7c0.7-1.6,1.2-3.1,1.6-4.7
						c0.5-1.6,1.1-3.1,1.4-4.7l-0.4,0.3C279,191,278.2,191.5,277.5,192.1z M295.6,158.5c-3.5,1.6-7.2,3-11,4.3
						c-3.7,1.4-7.6,2.7-11.5,4.2c-4.9,1.9-9.9,3.9-14.9,6.1c-3.4,1.6-6.6,3.4-10,5.3c-1.2,0.7-2.4,1.6-3.7,3
						c-1.2,1.2-2.4,2.8-3.7,4.6c-0.9,1.4-1.8,3-2.7,4.5c0,0-0.1,0.3-0.4,0.7c-0.1,0.3-0.4,0.7-0.4,0.7l19.2,7c0,0,0.4-0.3,0.8-0.4
						c0.4-0.3,0.8-0.4,0.8-0.4c2.6-1.5,5-2.8,7.4-4.3c2-1.2,4.1-2.6,6.1-3.8c3-1.9,6-4.5,8.9-7.3c2.4-2.3,4.6-4.7,6.8-7.3
						c2.6-3,4.7-6.1,6.8-9.3c1.9-2.8,3.4-5.8,4.6-8.9l-0.5,0.3C297.4,157.7,296.4,158.1,295.6,158.5z M330.4,76h-0.9
						c-2.6,0.1-5.7,1.2-9.2,2.8c-4.3,1.9-8.8,5.3-13.3,9.1c-1.9,1.8-3.8,3.7-5.5,5.7s-3.5,4.1-5.1,6.4c2.2-0.4,4.5-0.7,6.8-0.9
						c2.3-0.3,4.5-0.4,6.6-0.5c0,0,1.1-0.1,2.6-0.1c1.5-0.1,3.7-0.1,5.7-0.3c4.2-0.1,8.1-0.1,8.1-0.1c3.2-0.1,6.5,0,9.7,0
						c3.1,0,6.2-0.1,9.2-0.4c3.7-0.1,7.4-0.8,11.4-1.9c3.2-0.7,6.5-1.8,9.5-3c1.6-0.7,3.2-1.2,4.9-1.9l-6.4-11.1
						c-2-0.4-4.1-0.8-6.2-1.1c-2-0.3-4.2-0.7-6.4-0.9c-3.4-0.5-7-0.9-10.6-1.2C337.8,76.2,334.2,76,330.4,76z"/>
					<path fill="#FFFFFF" d="M430,45.7c-3-1.6-6.2-3.2-9.5-4.9c-0.8-0.4-1.6-0.8-2.4-1.2l-2.4-1.1c-1.6-0.7-3.4-1.4-5.1-1.9
						c-2.6-0.9-6.2-1.4-10.4-0.8c-2.3,0.3-4.9,0.7-7.6,1.2c-2.6,0.7-5.3,1.6-8,2.7c-4.9,1.8-9.6,4.6-14.2,7.6
						c4.6,0.8,8.9,1.9,13,3.1c0,0,4.1,1.2,7.8,2.6c1.9,0.7,3.8,1.4,5.3,1.8c1.5,0.5,2.4,0.9,2.4,0.9c3.1,1.2,6.1,2.3,9.1,3.4
						l4.3,1.5c1.5,0.5,3,0.9,4.3,1.4c3.4,1.1,7.3,1.6,11.2,2.2c7.2,0.8,14.5,0.8,21.4-0.1c1.6-0.3,3.4-0.5,5-0.8
						c1.6-0.4,3.2-0.8,4.9-1.2c-1.2-0.5-2.3-1.1-3.2-1.5c-2.2-1.1-4.2-2.2-6.4-3.4c-2.2-1.2-4.2-2.6-6.4-3.7
						c-2.2-1.2-4.3-2.6-6.5-3.8C434.6,48.4,432.3,46.9,430,45.7z M476.1,44.5c-4.1-3.2-8.3-6.9-12.7-9.9c-3.1-2.2-6.2-4.2-9.6-6.1
						c-2.4-1.4-6-2.2-10.1-2.6c-2.4-0.3-5-0.3-7.6,0c-2.7,0.3-5.5,0.5-8.4,1.1c-2.6,0.5-5.1,1.2-7.7,2.2c-1.2,0.4-2.6,0.8-3.8,1.4
						c-1.2,0.4-2.6,1.1-3.8,1.6c1.6,0.5,3.2,1.2,4.9,1.9c1.6,0.7,3.1,1.4,4.6,2.2c3.1,1.5,6,3,8.8,4.5c4.3,2.6,8.7,5,12.9,7.4
						c4.1,2.4,8.1,4.7,12,6.6c3.2,1.6,6.9,3.1,10.7,4.2c6.9,2.2,14.1,3.2,21.1,3.5c3.4,0,6.8,0,10-0.4c-1.1-0.7-2-1.4-2.8-2
						c-3.1-2.4-6.1-4.7-9.2-7.3l-4.6-3.9C479.3,47.1,477.7,45.9,476.1,44.5z M515.7,24.1c-2.6-0.3-5.1-0.5-7.8-0.7
						c-2.7-0.1-5.4,0.1-8.1,0.3l0.9,0.8c5,4.1,9.3,8.8,13.4,13.3c2.6,2.7,4.9,5.7,7.3,8.4l3.5-20.2
						C521.9,25.2,518.8,24.3,515.7,24.1z M381.4,82.5c-2-0.3-4.1-0.5-6.2-0.8c-1.1-0.1-2-0.4-3.1-0.5s-2-0.3-3.1-0.5l-3-0.5
						l-1.8-0.3l6.4,11.1c1.9-0.8,3.8-1.8,5.7-2.8c3-1.5,5.8-3.4,8.5-5.4h-0.5C383.3,82.6,382.2,82.5,381.4,82.5z M417,68.4
						c-1.9-0.5-3.8-1.2-5.5-1.8c-1.9-0.5-3.7-1.2-5.5-1.9c-1.9-0.7-3.8-1.4-5.7-2.2c-1.9-0.7-3.8-1.4-5.8-2c-2.6-0.8-5-1.8-7.6-2.6
						s-5.1-1.5-7.8-2.3c-3.7-0.9-7.3-1.9-11.1-2.3c-2.7-0.4-6.4,0-10.4,0.9c-1.6,0.4-3.2,1.1-4.9,1.8l-1.4,0.5l10.3,17.7l1.8,0.3
						c2.8,0.5,5.7,0.8,8.4,1.4c2.4,0.4,4.7,0.7,7.2,0.9c3.5,0.3,7.6,0.4,11.5,0.1c1.6-0.1,3.2-0.4,4.9-0.5c1.6-0.1,3.2-0.4,4.9-0.7
						c1.9-0.3,3.8-0.8,5.7-1.2c1.9-0.4,3.8-0.9,5.5-1.5c1.6-0.5,3.1-1.2,4.7-1.8c1.5-0.5,3.1-1.2,4.6-2l-0.5-0.1
						C418.7,68.9,417.8,68.7,417,68.4z M496.5,27.7l-0.8-0.5c-2.2-1.6-5.1-2.8-8.8-3.8c-2.3-0.5-4.9-1.1-7.6-1.4s-5.5-0.3-8.4-0.3
						c-1.4,0-2.6,0.1-3.9,0.1c-1.4,0.1-2.6,0.3-3.9,0.5c-2.7,0.4-5.3,0.9-8,1.6c3.9,2.3,7.7,4.9,11.2,7.3c0,0,0.8,0.5,2,1.6
						c1.2,0.9,2.8,2.3,4.5,3.5c3.2,2.6,6.4,5.1,6.4,5.1c2.6,2.2,5,4.3,7.4,6.2c2.4,2,4.9,3.8,7.3,5.5c2.8,2.2,6.4,4.1,9.9,5.8
						c3,1.5,6.1,2.8,9.2,3.8c1.6,0.5,3.2,1.2,5,1.6l2.2-12.6c-1.4-1.6-2.7-3.2-4.1-4.9c-1.4-1.6-2.8-3.1-4.2-4.7
						c-2.3-2.6-4.7-5.3-7.3-7.7C502,32.5,499.3,30,496.5,27.7z"/>
					<path fill="#FFFFFF" d="M592.1,68.4c-1.2-3.2-2.6-6.5-4.2-9.7c-1.5-3.2-3.2-6.5-5.1-9.6c-0.7-1.2-1.6-2.4-3-3.7
						c-1.2-1.2-2.8-2.4-4.5-3.7c-1.9-1.4-4.2-2.7-6.6-3.9c-2.4-1.1-5.1-2.2-7.8-3.1c-1.2-0.4-2.4-0.8-3.8-1.2
						c-1.2-0.4-2.6-0.7-3.9-0.9c-2.7-0.5-5.4-0.9-8.1-1.2c3,3.7,5.5,7.2,8,10.8c0,0,0.5,0.8,1.4,2.2c0.8,1.4,1.9,3.1,3,4.9
						c2.2,3.5,4.2,7,4.2,7c1.6,3,3.2,5.7,4.9,8.4c0.8,1.4,1.6,2.7,2.4,3.9c0.8,1.4,1.6,2.6,2.4,3.9c0.9,1.5,2.2,3,3.4,4.5
						c0.7,0.7,1.2,1.5,1.9,2.2c0.7,0.8,1.4,1.5,2,2.3c5,5.3,10.6,9.9,16.5,13.7c1.5,0.9,2.8,1.8,4.3,2.6s3,1.5,4.5,2.2
						c-0.5-1.2-1.1-2.3-1.5-3.1c-0.9-2.2-1.9-4.3-2.7-6.6c-0.8-2.3-1.6-4.6-2.4-6.9c-0.8-2.3-1.8-4.7-2.6-7
						C594,73.3,593.2,70.7,592.1,68.4z M628.4,97c-0.5-2.6-1.1-5.1-1.5-7.8c-0.5-2.7-1.1-5.4-1.8-8c-0.9-3.5-2-7.2-3.4-10.8
						c-0.9-2.6-3.1-5.5-6.1-8.5c-1.6-1.8-3.7-3.4-5.8-4.9c-2.2-1.6-4.6-3.1-7.2-4.5c-2.3-1.2-4.7-2.3-7.2-3.4
						c-1.2-0.5-2.6-0.9-3.8-1.5c-1.4-0.4-2.6-0.8-3.9-1.2c0.8,1.5,1.8,3,2.4,4.5c0.8,1.5,1.5,3.1,2.2,4.6c1.4,3.1,2.7,6.1,3.9,9.1
						c1.9,4.9,3.5,9.5,5.1,13.9c1.6,4.5,3.1,8.8,5,12.9c1.4,3.2,3.2,6.8,5.5,10.1c2,3,4.1,6,6.5,8.7c2.3,2.7,4.7,5.4,7.4,7.7
						c2.6,2.3,5.1,4.5,7.8,6.2c-0.4-1.2-0.7-2.4-0.9-3.4c-0.8-3.8-1.5-7.7-2.3-11.5c-0.3-2-0.7-3.9-0.9-6
						C629.2,101.2,628.8,99,628.4,97z M671.8,106.9c-1.8-1.9-3.7-3.8-5.7-5.5c-2-1.8-4.1-3.5-6.4-5.1l0.3,1.2
						c0.5,3.1,0.8,6.5,1.2,9.6c0.3,3.1,0.5,6.2,0.5,9.2c0,3.8,0.1,7.4,0.1,11.1l15.7-13.1C675.9,111.7,674,109.3,671.8,106.9z
						 M531.4,65.3c-2.8-3-5.5-6.4-8.3-9.5l-1.9-2.3l-1.1-1.4L518,64.8c2,0.5,4.1,1.1,6.1,1.5c3.2,0.8,6.6,1.2,9.9,1.4l-0.4-0.4
						C532.8,66.6,532.1,65.9,531.4,65.3z M567.7,77.4c-1.1-1.6-2-3.2-3.1-4.9c-1.1-1.6-2-3.4-3-5.1c-2-3.5-4.1-6.9-6.1-10.6
						c-1.4-2.3-2.7-4.6-4.2-6.9c-1.5-2.2-3-4.5-4.5-6.8c-2.2-3.1-4.5-6.1-7-8.9c-1.9-2-4.9-4.2-8.7-6c-1.5-0.7-3.2-1.2-4.9-1.8
						l-1.5-0.5l-3.5,20.2l1.1,1.4c1.9,2.2,3.8,4.3,5.5,6.5c1.6,1.9,3.2,3.7,4.9,5.3c1.2,1.4,2.6,2.4,4.1,3.8c1.5,1.4,3,2.6,4.6,3.8
						c1.4,0.9,2.7,1.9,4.1,2.7c1.4,0.9,2.8,1.8,4.2,2.6c1.6,0.9,3.4,1.9,5.1,2.7s3.5,1.6,5.3,2.4c1.6,0.7,3.1,1.2,4.7,1.6
						c1.6,0.5,3.1,0.9,4.7,1.4l-0.3-0.4C568.7,78.9,568.2,78,567.7,77.4z M654.9,97.4l-0.3-0.9c-0.7-2.4-2-5.5-4.3-8.5
						c-1.4-1.9-3-3.9-4.9-5.8c-1.9-2-4.1-3.8-6.4-5.5c-4.1-3.2-8.8-6-13.7-8.4c1.5,4.3,2.8,8.7,3.9,12.9c0,0,0.9,4.1,1.8,8.1
						c0.4,2,0.8,3.9,1.1,5.5c0.1,0.7,0.3,1.4,0.3,1.8c0.1,0.4,0.1,0.7,0.1,0.7c1.1,6.6,2.3,12.6,3.7,18.5c0.4,1.8,0.9,3.5,1.6,5.3
						c0.7,1.8,1.4,3.7,2.2,5.5c1.4,3.1,3,6,4.6,8.8c0.8,1.5,1.8,3,2.7,4.5l9.7-8.3c0-4.1,0-8.3-0.1-12.7
						C656.8,111.9,656.4,104.4,654.9,97.4z"/>
					<path fill="#FFFFFF" d="M702,190c0.5-1.6,1.2-3.4,1.6-5c0.5-1.6,0.9-3.4,1.5-5.1c0.9-3.5,1.8-7,2.3-10.7
						c0.4-2.7,0-6.4-0.9-10.4c-0.5-2.3-1.5-4.7-2.6-7.2c-0.5-1.2-1.1-2.4-1.8-3.8c-0.3-0.7-0.7-1.2-0.9-1.9
						c-0.4-0.5-0.8-1.2-1.1-1.9c-2.8-4.3-6.1-8.8-10-12.6c0,2.3,0,4.6-0.1,6.8c-0.1,2.3-0.4,4.5-0.7,6.6c0,0-0.5,4.2-1.1,8.1
						c-0.3,2-0.7,4.1-0.9,5.5c-0.3,1.5-0.4,2.6-0.4,2.6c-0.5,3.2-1.1,6.4-1.6,9.5s-0.9,6.1-1.4,9.1c-0.1,1.8-0.3,3.7-0.4,5.5
						c0,1.9,0,3.9,0.1,6c0.4,7.2,1.8,14.3,3.9,21.1c1.2,3.2,2.2,6.4,3.8,9.3c0.3-1.2,0.5-2.4,0.8-3.4c1.5-4.6,3-9.1,4.7-13.8
						C698.6,199.8,700.2,195.1,702,190z M711.3,235.2l2-3.5c0.7-1.2,1.2-2.3,1.9-3.5c1.2-2.3,2.4-4.7,3.8-7.3
						c1.8-3.4,3-6.9,4.3-10.4c0.9-2.6,1.4-6.2,0.8-10.4c-0.3-2.3-0.7-4.9-1.2-7.6c-0.5-2.7-1.6-5.3-2.6-8c-1.8-4.9-4.6-9.6-7.6-14.2
						c-1.4,6.9-3,13.4-5.1,19.5c-0.8,2.4-1.6,4.7-2.4,7.2c-0.8,2.3-1.8,4.6-2.6,6.9c-0.8,2.3-1.6,4.5-2.3,6.6
						c-0.7,2.2-1.5,4.3-2.2,6.5c-1.1,3.4-1.6,7.3-2.3,11.2c-0.8,7.2-0.8,14.5,0.1,21.4c0.3,1.6,0.5,3.4,0.8,5
						c0.4,1.6,0.8,3.2,1.2,4.9c0.5-1.2,1.1-2.3,1.5-3.2c1.8-3.4,3.7-6.9,5.7-10.3C707.1,242.4,709.1,238.9,711.3,235.2z
						 M738.2,270.7c0-1.4-0.1-2.6-0.1-3.9c-0.1-1.4-0.3-2.7-0.5-3.9c-0.4-2.7-0.9-5.4-1.6-8l-0.7,1.1c-1.8,2.8-3.5,5.5-5.3,8.1
						c-0.9,1.4-1.8,2.6-2.7,3.8c-0.9,1.2-1.9,2.4-2.8,3.7c-2.3,3-4.6,5.8-6.9,8.5H738C738.2,277,738.4,273.9,738.2,270.7z
						 M657.5,148.7c-0.3-4.1-0.4-8.3-0.3-12.6c0,0,0-0.8,0-1.5c0-0.8,0-1.5,0-1.5v-1.8l-9.7,8.3c1.2,1.8,2.3,3.5,3.7,5.1
						c1.1,1.4,2.2,2.6,3.2,3.8c1.2,1.2,2.3,2.4,3.4,3.5v-0.5C657.6,150.6,657.5,149.5,657.5,148.7z M677.4,181.1
						c0.3-1.9,0.5-3.8,0.8-5.8c0.1-0.9,0.3-1.9,0.5-3c0.1-0.9,0.3-1.9,0.4-3c0.7-3.9,1.4-8,2.2-12c0.7-5.1,1.6-10.6,2-16
						c0.3-3.7,0.4-7.4,0.4-11.4c0-0.7-0.1-1.5-0.1-2.2c-0.1-0.8-0.3-1.6-0.5-2.4c-0.5-1.6-1.2-3.5-2.2-5.4c-0.7-1.5-1.6-3.1-2.6-4.6
						l-0.8-1.2l-15.7,13.1v1.8c0,3,0,5.8,0,8.5c0,2.4,0.3,4.7,0.4,7.2c0.1,3.7,0.8,7.4,1.9,11.4c0.7,3.2,1.8,6.4,3,9.5
						c1.4,3.7,2.8,7.3,4.7,10.6c1.5,3,3.4,5.8,5.4,8.5v-0.5C677.2,183,677.4,181.9,677.4,181.1z M731.5,252.5l0.4-0.8
						c1.1-2.3,1.9-5.5,2.2-9.3c0.3-2.4,0.1-4.9,0-7.6c-0.3-2.7-0.5-5.5-1.2-8.4c-1.2-5-2.7-10.3-5.1-15.3c-0.8,2.2-1.6,4.2-2.4,6.4
						c-0.9,2-1.9,4.1-2.8,6.1c0,0-1.9,3.8-3.8,7.3c-2,3.7-4.1,7.2-4.1,7.2c-0.8,1.4-1.6,2.8-2.4,4.2c-0.8,1.4-1.5,2.7-2.3,4.2
						c-1.6,2.7-3,5.4-4.3,8.1c-0.4,0.8-0.8,1.6-1.1,2.4c-0.4,0.8-0.8,1.8-1.1,2.7c-0.7,1.8-1.4,3.7-1.9,5.5
						c-0.8,3.1-1.6,6.5-2.3,9.7c-0.3,1.8-0.5,3.4-0.7,5.1h12.7c2.7-3.2,5.3-6.5,8-9.7c2.3-2.7,4.3-5.5,6.4-8.5
						C727.7,258.8,729.7,255.7,731.5,252.5z"/>
				</g>
			</g>
		</g>
	</g>
</g>
<g>
	
		<image overflow="visible" opacity="0.75" enable-background="new    " width="424" height="424" xlink:href="67EC561.png"  transform="matrix(1 0 0 1 275 75)">
	</image>
	<g>
		<circle fill="none" stroke="#FFFFFF" stroke-width="6" stroke-miterlimit="10" cx="480" cy="280" r="193.3"/>
	</g>
</g>
<g id="XMLID_4_">
	
		<image overflow="visible" opacity="0.75" enable-background="new    " width="386" height="386" xlink:href="67EC567.png"  transform="matrix(1 0 0 1 294 94)">
	</image>
	<g>
		<g>
			<g>
				<path fill="#FFFFFF" d="M492.4,102.3c9.3,1.6,18.8,2.7,28,5c88.9,21.5,146.9,102.1,135.7,192.5c-5.4,43-30.6,74.9-71.8,90.6
					c-50.7,19.2-100.2-31.5-95.1-72c4.9-39,49.1-77.9,93.2-61.3c2.3,0.8,4.6,1.6,7.6,2.6C600.8,202.8,574.6,131.6,492.4,102.3z"/>
				<path fill="#FFFFFF" d="M443.3,385c43.6,37.6,116.1,51.1,183.8-6c-2.2,3.8-3.1,5.7-4.2,7.2c-57.5,77.8-170.3,95.4-247.1,36.5
					c-34.6-26.5-49.6-64.3-42.9-108.3c4.6-29.9,31.5-51.8,63.7-56.4c38.7-5.5,68,22.3,74.3,57.6C475.9,344.1,466.6,366.8,443.3,385z
					"/>
				<path fill="#FFFFFF" d="M523,134.2c23.4,18,30.4,49.1,19.9,80.3c-9.2,27.6-31,44.6-60.9,44.6c-28.9,0-64.5-15.3-72.4-55.1
					c-0.5-2.7-1.2-5.4-1.9-8.1C355.6,212.7,304.5,270,320.6,357c-1.5-2.8-3.2-5.7-4.5-8.7c-37.1-87.9,3.9-192.8,91.8-229.7
					C447.9,102.1,488,107.1,523,134.2z"/>
			</g>
		</g>
	</g>
</g>
</svg>
